<?xml version="1.0" encoding="UTF-8" standalone="no"?>
<svg
   viewBox="0 0 34.909019 40"
   version="1.1"
   id="svg3"
   width="34.909019"
   height="40"
   xmlns="http://www.w3.org/2000/svg"
   xmlns:svg="http://www.w3.org/2000/svg">
  <defs
     id="defs3" />
  <rect
     style="display:none;fill:#ff00ff;stroke:none;stroke-width:1.5;stroke-linecap:square;stroke-linejoin:miter;stroke-miterlimit:4.1"
     id="rect1"
     width="40"
     height="40"
     x="0"
     y="0" />
  <path
     id="polygon1"
     style="fill:#ffffff;stroke:#000000;stroke-width:1.4;stroke-dasharray:none"
     d="M 20,5.9240778 33.924386,20 20,34.075922 6.075613,20 Z" />
  <circle
     id="port-n_plus"
     cx="20"
     cy="0"
     fill="none"
     stroke="none"
     style="stroke:#000000"
     r="0" />
  <ellipse
     id="port-n_minus"
     cx="20"
     cy="40"
     fill="none"
     stroke="none"
     style="stroke:#000000"
     ry="0"
     rx="1" />
  <circle
     id="port-nc_plus"
     cx="0"
     cy="10"
     fill="none"
     stroke="none"
     style="stroke:#000000"
     r="0" />
  <circle
     id="port-nc_minus"
     cx="0"
     cy="30"
     fill="none"
     stroke="none"
     style="stroke:#000000"
     r="0" />
  <circle
     id="port-ctrl"
     cx="0"
     cy="20"
     fill="none"
     stroke="none"
     style="stroke:#000000"
     r="0" />
  <path
     style="fill:none;stroke:#000000;stroke-width:1.5;stroke-miterlimit:4.1"
     d="M 20,5.9240778 V 0"
     id="path1" />
  <path
     style="fill:none;stroke:#000000;stroke-width:1.5;stroke-miterlimit:4.1"
     d="M 20,34.075922 V 40"
     id="path2" />
  <path
     style="fill:none;stroke:#000000;stroke-width:1.5;stroke-miterlimit:4.1"
     d="m 0,30 h 10 l 3.037807,-2.962039"
     id="path4" />
  <path
     style="fill:none;stroke:#000000;stroke-width:1.5;stroke-miterlimit:4.1"
     d="m 0,10 h 10 l 3.037807,2.962039"
     id="path4-6" />
  <path
     id="line1"
     style="stroke:#000000;stroke-width:1.6"
     d="M 20,12.576754 V 24.988042" />
  <polygon
     points="39,26 35,32 31,26 "
     fill="#222"
     id="polygon1-6"
     style="fill:#000000;stroke:none;stroke-width:1.18079"
     transform="matrix(0.84689038,0,0,0.84689038,-9.641163,0.72028912)" />
</svg>
